<svg xmlns="http://www.w3.org/2000/svg" viewBox="0 0 820 100" role="img" aria-labelledby="title desc"><title id="title">TAIJIFU HNK Signature</title><desc id="desc">Official seven-position HNK signature: G22, G01, G03, G36, G03, G25, G05.</desc><g data-glyph="G22" transform="translate(0 0)"><g fill="none" stroke="currentColor" stroke-width="4.6" stroke-linecap="round" stroke-linejoin="round"><path d="M44 14 L44 86"/><path d="M44 29 C56 20 68 28 64 40 C61 49 50 50 44 45"/><path d="M44 54 L62 41 L58 62"/><path d="M50 20 L72 50 L50 80 L28 50 Z"/><path d="M28 50 L72 50"/></g></g><g data-glyph="G01" transform="translate(120 0)"><g fill="none" stroke="currentColor" stroke-width="4.6" stroke-linecap="round" stroke-linejoin="round"><path d="M50 12 L50 88"/><path d="M50 27 C33 27 27 44 35 56 C42 67 57 65 61 52 C64 42 60 32 50 27"/><path d="M50 27 C60 21 66 26 68 34"/><path d="M38 22 L50 8 L62 22"/><circle cx="50" cy="8" r="3.3" fill="currentColor" stroke="none"/></g></g><g data-glyph="G03" transform="translate(240 0)"><g fill="none" stroke="currentColor" stroke-width="4.6" stroke-linecap="round" stroke-linejoin="round"><path d="M50 14 L50 86"/><path d="M50 26 C64 28 70 40 62 50"/><path d="M50 50 C37 47 32 58 39 69"/><path d="M38 33 L50 26"/><path d="M38 22 L50 8 L62 22"/><circle cx="50" cy="8" r="3.3" fill="currentColor" stroke="none"/></g></g><g data-glyph="G36" transform="translate(360 0)"><g fill="none" stroke="currentColor" stroke-width="4.6" stroke-linecap="round" stroke-linejoin="round"><path d="M50 14 L50 86"/><path d="M30 52 C34 35 44 31 50 42 C56 31 66 35 70 52"/><path d="M32 63 C42 73 58 73 68 63"/><path d="M38 52 L62 52"/><path d="M26 78 Q50 92 74 78"/><path d="M34 86 L66 86"/><circle cx="50" cy="92" r="3.2" fill="currentColor" stroke="none"/></g></g><g data-glyph="G03" transform="translate(480 0)"><g fill="none" stroke="currentColor" stroke-width="4.6" stroke-linecap="round" stroke-linejoin="round"><path d="M50 14 L50 86"/><path d="M50 26 C64 28 70 40 62 50"/><path d="M50 50 C37 47 32 58 39 69"/><path d="M38 33 L50 26"/><path d="M38 22 L50 8 L62 22"/><circle cx="50" cy="8" r="3.3" fill="currentColor" stroke="none"/></g></g><g data-glyph="G25" transform="translate(600 0)"><g fill="none" stroke="currentColor" stroke-width="4.6" stroke-linecap="round" stroke-linejoin="round"><path d="M61 15 C36 25 33 40 49 49 C66 58 64 73 38 84"/><path d="M43 24 L57 76"/><path d="M50 20 L72 50 L50 80 L28 50 Z"/><path d="M28 50 L72 50"/></g></g><g data-glyph="G05" transform="translate(720 0)"><g fill="none" stroke="currentColor" stroke-width="4.6" stroke-linecap="round" stroke-linejoin="round"><path d="M61 15 C36 25 33 40 49 49 C66 58 64 73 38 84"/><path d="M43 24 L57 76"/><path d="M38 22 L50 8 L62 22"/><circle cx="50" cy="8" r="3.3" fill="currentColor" stroke="none"/></g></g></svg>
