<svg xmlns="http://www.w3.org/2000/svg" viewBox="0 0 4380 1000" role="img" aria-labelledby="title desc"><title id="title">TAIJIFU proprietary wordmark V1</title><desc id="desc">Uppercase proprietary TAIJIFU lettering with structural axes, martial cuts and controlled gestural terminals.</desc><g fill="currentColor"><g id="TAI"><!-- T --><path d="M80 110 H650 L610 230 H405 V890 H285 V230 H80 Z"/><!-- A --><path fill-rule="evenodd" d="M690 890 L930 110 H1090 L1330 890 H1190 L1135 690 H875 L820 890 Z M910 565 H1100 L1005 255 Z"/><path d="M935 110 H1085 L1045 175 H915 Z"/><!-- I --><path d="M1390 110 H1510 L1478 160 V840 L1510 890 H1390 L1422 840 V160 Z"/></g><g id="JI"><!-- J --><path d="M1660 110 H1780 V655 C1780 810 1695 900 1540 900 C1480 900 1428 884 1388 856 L1450 752 C1475 770 1505 780 1540 780 C1620 780 1660 738 1660 655 Z"/><path d="M1660 110 H1835 L1790 225 H1660 Z"/><!-- I --><path d="M1905 110 H2025 L1993 160 V840 L2025 890 H1905 L1937 840 V160 Z"/></g><g id="FU"><!-- F --><path d="M2180 110 H2705 L2665 230 H2300 V430 H2580 L2542 545 H2300 V890 H2180 Z"/><path d="M2580 430 H2700 L2640 545 H2542 Z"/><!-- U --><path d="M2820 110 H2940 V625 C2940 735 3000 790 3110 790 C3220 790 3280 735 3280 625 V110 H3400 V635 C3400 820 3290 910 3110 910 C2930 910 2820 820 2820 635 Z"/><path d="M3280 110 H3440 L3388 225 H3280 Z"/></g></g></svg>