<svg xmlns="http://www.w3.org/2000/svg" viewBox="0 0 1000 1000" role="img" aria-labelledby="title desc"><title id="title">TAIJIFU Ω1 Vector Candidate V1</title><desc id="desc">Engineering candidate synthesizing source-locked HNK glyph geometry into the Origin Nexus Flow identity.</desc><g fill="none" stroke="currentColor" stroke-linecap="round" stroke-linejoin="round"><path stroke-width="54" d="M500 120 L500 865"/><path stroke-width="54" d="M500 250 C650 275 735 390 660 505 C610 580 530 570 500 535"/><path stroke-width="54" d="M500 535 C370 500 310 610 390 715"/><path stroke-width="48" d="M610 155 C365 245 320 410 475 500 C650 602 630 760 375 855"/><path stroke-width="42" d="M430 245 L570 760"/><path stroke-width="46" d="M300 520 C340 350 440 315 500 425 C560 315 660 350 700 520"/><path stroke-width="46" d="M320 630 C420 735 580 735 680 630"/><path stroke-width="42" d="M260 790 Q500 930 740 790"/><path stroke-width="42" d="M340 870 L660 870"/><path stroke-width="42" d="M500 205 L720 500 L500 800 L280 500 Z"/><path stroke-width="42" d="M280 500 L720 500"/><path stroke-width="42" d="M380 220 L500 80 L620 220"/></g><circle cx="500" cy="80" r="30" fill="currentColor"/><circle cx="500" cy="920" r="28" fill="currentColor"/></svg>