<svg xmlns="http://www.w3.org/2000/svg" viewBox="0 0 1000 1000" role="img" aria-labelledby="title desc"><title id="title">TAIJIFU Ω1 Vector Candidate V3 — Optical Refinement</title><desc id="desc">Refined AXIS, PORTAL and FLOW synthesis with reduced top complexity and separated lower terminals.</desc><g fill="none" stroke="currentColor" stroke-linecap="round" stroke-linejoin="round"><path stroke-width="62" d="M500 132 L500 842"/><path stroke-width="48" d="M447 176 L500 118 L553 176"/><path stroke-width="58" d="M700 320 C780 448 746 618 626 712 C536 782 410 790 316 724 C239 670 202 580 214 489 C225 404 270 330 339 283"/><path stroke-width="54" d="M638 220 C491 250 397 334 408 421 C418 493 508 510 559 554 C614 602 594 682 507 748 C453 789 397 817 352 837"/></g><circle cx="500" cy="500" r="28" fill="currentColor"/><path d="M500 842 L470 804 L530 804 Z" fill="currentColor"/></svg>